<svg width="125" height="48" viewBox="0 0 125 48" fill="none" xmlns="http://www.w3.org/2000/svg">
<path d="M5.69471 27.289C5.28346 27.4828 5.10202 27.9709 5.28529 28.3881L7.16375 32.4399C7.25604 32.6417 7.4244 32.7987 7.63147 32.8762C7.72219 32.9094 7.8184 32.9264 7.91514 32.9264C8.03615 32.9274 8.15565 32.9014 8.26568 32.8513L22.4584 26.1903L21.1728 39.6958C21.148 39.9617 21.2499 40.223 21.4478 40.4006C22.0701 40.9182 22.8455 41.2129 23.6523 41.2394C23.8748 41.2392 24.096 41.211 24.3117 41.1559C25.4639 40.8538 26.3572 39.8222 26.9666 38.0603L32.5518 21.4426L43.6134 16.2581C46.8693 14.7315 48.5473 11.6362 47.4205 9.22016C46.7811 7.95739 45.5561 7.09837 44.1561 6.92998C42.6006 6.69408 41.0107 6.93996 39.5979 7.63506L26.8328 13.6495L13.1081 8.25552C11.3798 7.60144 10.0108 7.61824 9.0508 8.31464C8.2453 8.97872 7.78702 9.97704 7.80663 11.0238C7.815 11.2894 7.94807 11.535 8.1656 11.6869L17.4072 18.0704L12.1146 20.587L3.23978 18.3218C2.87611 18.232 2.49754 18.3967 2.31322 18.7246L0.10117 22.7257C-0.0136024 22.9377 -0.0316418 23.1893 0.051758 23.4158C0.134635 23.6425 0.310846 23.8219 0.535424 23.9086L7.10571 26.6351L5.69471 27.289ZM9.51775 10.6046C9.56696 10.2499 9.74546 9.92712 10.0189 9.69856C10.4951 9.3544 11.3633 9.40488 12.5236 9.84096L24.7459 14.631L19.1689 17.2482L9.51775 10.6046ZM2.00447 22.7175L3.45703 20.1255L11.9975 22.2559C12.1816 22.3027 12.3759 22.2851 12.5489 22.206L40.3077 9.1784C41.4113 8.63144 42.6541 8.43232 43.8725 8.60784C44.7268 8.68688 45.4879 9.18232 45.9096 9.93312C46.6103 11.4434 45.233 13.6495 42.9036 14.7399L33.2862 19.2702L33.8708 17.5332C34.0185 17.0863 33.7772 16.6035 33.3325 16.4554C32.8873 16.3072 32.4069 16.5497 32.2595 16.9965L25.3885 37.5399C24.9794 38.7062 24.4701 39.4026 23.9025 39.5532C23.5509 39.6212 23.1869 39.5519 22.884 39.3606L24.5538 21.7442C24.5975 21.2811 24.2594 20.87 23.7979 20.8261C23.337 20.7817 22.9279 21.1219 22.884 21.585L22.6254 24.2777L8.29896 30.9885L7.12244 28.4718L9.47619 27.3649C9.77922 27.2306 9.97452 26.9296 9.97452 26.5973C9.97452 26.2647 9.77922 25.9637 9.47619 25.8297L2.00447 22.7175Z" fill="#FF9759"/>
<path d="M43.6993 25.0176V26.4384H40.0687V38.4H38.3299V26.4384H34.6802V25.0176H43.6993ZM47.5786 29.5872C47.8843 28.9856 48.3174 28.5184 48.8779 28.1856C49.4512 27.8528 50.1455 27.6864 50.9607 27.6864V29.4912H50.5021C48.5531 29.4912 47.5786 30.5536 47.5786 32.6784V38.4H45.8397V27.8784H47.5786V29.5872ZM53.8661 26.1696C53.5349 26.1696 53.2546 26.0544 53.0253 25.824C52.796 25.5936 52.6814 25.312 52.6814 24.9792C52.6814 24.6464 52.796 24.3648 53.0253 24.1344C53.2546 23.904 53.5349 23.7888 53.8661 23.7888C54.1846 23.7888 54.4521 23.904 54.6686 24.1344C54.8979 24.3648 55.0126 24.6464 55.0126 24.9792C55.0126 25.312 54.8979 25.5936 54.6686 25.824C54.4521 26.0544 54.1846 26.1696 53.8661 26.1696ZM54.7068 27.8784V38.4H52.968V27.8784H54.7068ZM59.4092 29.8176C59.7532 29.216 60.2627 28.7168 60.9379 28.32C61.6258 27.9104 62.422 27.7056 63.3264 27.7056C64.2564 27.7056 65.0971 27.9296 65.8487 28.3776C66.6131 28.8256 67.2118 29.4592 67.6449 30.2784C68.078 31.0848 68.2946 32.0256 68.2946 33.1008C68.2946 34.1632 68.078 35.1104 67.6449 35.9424C67.2118 36.7744 66.6131 37.4208 65.8487 37.8816C65.0971 38.3424 64.2564 38.5728 63.3264 38.5728C62.4347 38.5728 61.6449 38.3744 60.957 37.9776C60.2818 37.568 59.7659 37.0624 59.4092 36.4608V43.392H57.6704V27.8784H59.4092V29.8176ZM66.5175 33.1008C66.5175 32.3072 66.3583 31.616 66.0398 31.0272C65.7213 30.4384 65.2882 29.9904 64.7404 29.6832C64.2054 29.376 63.6131 29.2224 62.9634 29.2224C62.3264 29.2224 61.7341 29.3824 61.1863 29.7024C60.6513 30.0096 60.2182 30.464 59.8869 31.0656C59.5685 31.6544 59.4092 32.3392 59.4092 33.12C59.4092 33.9136 59.5685 34.6112 59.8869 35.2128C60.2182 35.8016 60.6513 36.256 61.1863 36.576C61.7341 36.8832 62.3264 37.0368 62.9634 37.0368C63.6131 37.0368 64.2054 36.8832 64.7404 36.576C65.2882 36.256 65.7213 35.8016 66.0398 35.2128C66.3583 34.6112 66.5175 33.9072 66.5175 33.1008ZM74.2904 38.5728C73.4879 38.5728 72.7682 38.4384 72.1312 38.1696C71.4943 37.888 70.9911 37.504 70.6217 37.0176C70.2522 36.5184 70.0484 35.9488 70.0102 35.3088H71.8064C71.8573 35.8336 72.0994 36.2624 72.5325 36.5952C72.9783 36.928 73.558 37.0944 74.2713 37.0944C74.9338 37.0944 75.4561 36.9472 75.8382 36.6528C76.2204 36.3584 76.4115 35.9872 76.4115 35.5392C76.4115 35.0784 76.2076 34.7392 75.8 34.5216C75.3924 34.2912 74.7618 34.0672 73.9083 33.8496C73.1312 33.6448 72.4943 33.44 71.9975 33.2352C71.5134 33.0176 71.093 32.704 70.7363 32.2944C70.3924 31.872 70.2204 31.3216 70.2204 30.6432C70.2204 30.1056 70.3796 29.6128 70.6981 29.1648C71.0166 28.7168 71.4688 28.3648 72.0548 28.1088C72.6408 27.84 73.3096 27.7056 74.0611 27.7056C75.2204 27.7056 76.1567 28 76.8701 28.5888C77.5834 29.1776 77.9656 29.984 78.0166 31.008H76.2777C76.2395 30.4576 76.0166 30.016 75.6089 29.6832C75.214 29.3504 74.679 29.184 74.0038 29.184C73.3796 29.184 72.8828 29.3184 72.5134 29.5872C72.1439 29.856 71.9592 30.208 71.9592 30.6432C71.9592 30.9888 72.0675 31.2768 72.2841 31.5072C72.5134 31.7248 72.7936 31.904 73.1248 32.0448C73.4688 32.1728 73.9401 32.32 74.5389 32.4864C75.2904 32.6912 75.9019 32.896 76.3732 33.1008C76.8446 33.2928 77.2459 33.5872 77.5771 33.984C77.921 34.3808 78.0994 34.8992 78.1121 35.5392C78.1121 36.1152 77.9529 36.6336 77.6344 37.0944C77.3159 37.5552 76.8637 37.92 76.2777 38.1888C75.7045 38.4448 75.042 38.5728 74.2904 38.5728ZM90.6561 28.896C90.2867 28.1152 89.7517 27.5136 89.051 27.0912C88.3504 26.656 87.5351 26.4384 86.6052 26.4384C85.6752 26.4384 84.8345 26.656 84.0829 27.0912C83.344 27.5136 82.758 28.128 82.3249 28.9344C81.9045 29.728 81.6943 30.6496 81.6943 31.6992C81.6943 32.7488 81.9045 33.6704 82.3249 34.464C82.758 35.2576 83.344 35.872 84.0829 36.3072C84.8345 36.7296 85.6752 36.9408 86.6052 36.9408C87.9045 36.9408 88.9746 36.5504 89.8154 35.7696C90.6561 34.9888 91.1466 33.9328 91.2867 32.6016H85.9746V31.1808H93.1402V32.5248C93.0383 33.6256 92.6944 34.6368 92.1084 35.5584C91.5224 36.4672 90.7517 37.1904 89.7963 37.728C88.8408 38.2528 87.7772 38.5152 86.6052 38.5152C85.3695 38.5152 84.2421 38.2272 83.223 37.6512C82.2039 37.0624 81.395 36.2496 80.7963 35.2128C80.2103 34.176 79.9173 33.0048 79.9173 31.6992C79.9173 30.3936 80.2103 29.2224 80.7963 28.1856C81.395 27.136 82.2039 26.3232 83.223 25.7472C84.2421 25.1584 85.3695 24.864 86.6052 24.864C88.0192 24.864 89.2676 25.216 90.3504 25.92C91.4459 26.624 92.2421 27.616 92.7389 28.896H90.6561ZM104.993 32.736C104.993 33.0688 104.974 33.4208 104.936 33.792H96.5662C96.6299 34.8288 96.9802 35.6416 97.6171 36.2304C98.2668 36.8064 99.0502 37.0944 99.9674 37.0944C100.719 37.0944 101.343 36.9216 101.84 36.576C102.35 36.2176 102.706 35.744 102.91 35.1552H104.783C104.502 36.1664 103.942 36.992 103.101 37.632C102.26 38.2592 101.216 38.5728 99.9674 38.5728C98.9738 38.5728 98.0821 38.3488 97.2923 37.9008C96.5152 37.4528 95.9037 36.8192 95.4579 36C95.012 35.168 94.7891 34.208 94.7891 33.12C94.7891 32.032 95.0057 31.0784 95.4388 30.2592C95.8719 29.44 96.477 28.8128 97.2541 28.3776C98.0439 27.9296 98.9483 27.7056 99.9674 27.7056C100.961 27.7056 101.84 27.9232 102.604 28.3584C103.369 28.7936 103.955 29.3952 104.362 30.1632C104.783 30.9184 104.993 31.776 104.993 32.736ZM103.197 32.3712C103.197 31.7056 103.05 31.136 102.757 30.6624C102.464 30.176 102.063 29.8112 101.553 29.568C101.057 29.312 100.502 29.184 99.891 29.184C99.012 29.184 98.2604 29.4656 97.6362 30.0288C97.0248 30.592 96.6744 31.3728 96.5853 32.3712H103.197ZM112.39 27.6864C113.664 27.6864 114.696 28.0768 115.486 28.8576C116.276 29.6256 116.67 30.7392 116.67 32.1984V38.4H114.951V32.448C114.951 31.3984 114.69 30.5984 114.167 30.048C113.645 29.4848 112.932 29.2032 112.027 29.2032C111.11 29.2032 110.377 29.4912 109.83 30.0672C109.295 30.6432 109.027 31.4816 109.027 32.5824V38.4H107.288V27.8784H109.027V29.376C109.371 28.8384 109.836 28.4224 110.422 28.128C111.021 27.8336 111.677 27.6864 112.39 27.6864ZM121.632 29.3184V35.52C121.632 36.032 121.741 36.3968 121.957 36.6144C122.174 36.8192 122.549 36.9216 123.084 36.9216H124.365V38.4H122.798C121.83 38.4 121.104 38.176 120.62 37.728C120.135 37.28 119.893 36.544 119.893 35.52V29.3184H118.537V27.8784H119.893V25.2288H121.632V27.8784H124.365V29.3184H121.632Z" fill="#475F6B"/>
</svg>
